<?xml version="1.0" encoding="utf-8"?>
<!-- Generator: Adobe Illustrator 18.0.0, SVG Export Plug-In . SVG Version: 6.00 Build 0)  -->
<!DOCTYPE svg PUBLIC "-//W3C//DTD SVG 1.1//EN" "http://www.w3.org/Graphics/SVG/1.1/DTD/svg11.dtd">
<svg version="1.1" id="Layer_1" xmlns="http://www.w3.org/2000/svg" xmlns:xlink="http://www.w3.org/1999/xlink" x="0px" y="0px"
	 viewBox="0 0 376.3 262.7" width="378.474891166" height="264.218320248" enable-background="new 0 0 376.3 262.7" xml:space="preserve">
<path d="M136.5,203.7"/>
<path d="M13.3,233.7c0-0.3,0.2-2.1-0.5-2.2H5.2c-2.9,0-3,0.7-3.9,3.3l-0.8,1.1L0,235.3l0.5-4.6c0-0.6,0-1.8,0.8-1.8
	c3.7,0,7.3,0.2,13.4,0.2c8.6,0,12.9-0.2,13.8-0.2c1.1,0,1.3,0.3,1.4,1.4l0.2,3.8l-0.5,1c-1.7,0,0.8-3.6-4-3.6H19
	c-2.1,0-1.9-0.2-1.9,2.3v24.1c0,4,3.8,2.4,3.8,3.9l-0.4,0.6c-1.1,0-2.5-0.2-3.8-0.2c-5.3,0-6.2,0.2-6.5,0.2l-0.6-0.6
	c0-1.1,3.7-0.7,3.7-3.5V233.7z"/>
<path d="M31.2,240.6c0-2.5-3-1.8-3-2.6l0.6-0.4c1.3,0,2.5,0.1,3.8,0.1c1.1,0,2.2-0.1,3.2-0.1l0.7,0.4c0,0.7-2.5,0-2.5,2.6v7.5
	l0.5,0.6h12.7l0.3-1v-7.1c0-2.4-2.6-1.8-2.6-2.6l0.6-0.4c1.1,0,3,0.1,3.6,0.1c1.3,0,1.8-0.1,2.5-0.1c0.9,0,1,0.4,1,0.6
	c0,0.6-2.3,0-2.3,2.4v18.5c0,2.5,3.2,1.9,3.2,2.8l-0.4,0.4c-0.9,0-2-0.1-3.3-0.1c-2.2,0-3.2,0.1-3.9,0.1l-0.8-0.5
	c0-0.8,2.4-0.3,2.4-2.5v-8.4l-0.3-0.9H34.4l-0.4,0.6v8.7c0,2.4,3.3,1.6,3.3,2.7l-0.6,0.3c-0.5,0-3-0.1-4.8-0.1c-2.5,0-2.9,0.1-3,0.1
	l-0.4-0.5c0-1,2.7,0.1,2.7-3.3V240.6z"/>
<path d="M60,247.8c0,1.2-0.1,1.2,1.3,1.2h3.8c3.6,0,2.7-2.8,3.5-2.8l0.4,0.7c0,1.2-0.1,2.4-0.1,3.5c0,0.9,0.1,1.8,0.1,2.7l-0.4,0.5
	c-1.1,0,0.1-3.1-2.8-3.1h-5.2c-0.7,0-0.6,0.6-0.6,1.1v6.4c0,2.1-0.3,2.9,2.6,2.9c8,0,9.2-3.6,9.7-3.6l0.3,0.4c0,1.3-0.9,2.5-1.7,3.4
	c-1.1,1.3-1.9,1.2-3.4,1.2c-2.6,0-5.3-0.2-7.9-0.1c-1.4,0-2.9,0.1-4.2,0.1l-0.5-0.4c0.1-0.4,0.4-0.3,1.5-0.9c0.9-0.4,1-1.4,1-3
	v-15.9c0-1.6,0-3.2-1.9-3.5l-1-0.6c0-0.3,0.2-0.4,1.2-0.4c6.6,0,8.4,0.1,9.9,0.1c0.7,0,3.9-0.1,5-0.1l0.3,0.8c0,3.9-0.5,4.1-0.7,4.1
	c-0.8,0-0.3-1.7-0.8-2.5c-0.9-1.2-4.5-1-5.9-1c-3.3,0-3.3-0.1-3.3,2.2V247.8z"/>
<path d="M92.8,244.2c0,0.9,2.9,0.7,5.2,0.7c2,0,6.6-0.9,6.6-6.7c0-5.8-4.4-7.7-9-7.7c-1.7,0-2.7-0.1-2.7,1.7V244.2z M110,257.2
	c3.4,5.2,5.7,3.4,5.7,4.6l-3.1,0.6c-3.4,0-5.3-2.4-7.1-5.1l-5.2-8.3c-1.7-2.7-1-2.5-6.3-2.5c-1.5,0-1.2,0.9-1.2,1.3v10
	c0,4.1,4.9,2.6,4.9,4.2l-0.8,0.4c-0.4,0-1.5-0.2-5.4-0.2c-1.8,0-3.6,0.2-5.4,0.2l-0.5-0.5c0-1.2,3.4-0.5,3.4-4.1v-24.1
	c0-4.5-4.1-2.6-4.1-4.2l0.9-0.6c0.8,0,0.6,0.2,3,0.2c2.7,0,5.4-0.2,7.9-0.2c0.8,0,11.2-0.9,11.2,8.2c0,3.7-2.6,6.9-6,8.2L110,257.2z
	"/>
<path d="M119.2,240.6c0-2.5-2.8-1.8-2.8-2.6l0.4-0.4c1.3,0,2.5,0.1,3.8,0.1c1.1,0,2.2-0.1,3.2-0.1l0.7,0.4c0,0.8-2.5,0-2.5,2.6v18.7
	c0,2.4,3.1,1.6,3.1,2.6l-0.7,0.3c-0.8,0-2.3-0.1-3.8-0.1c-2.1,0-2.9,0.1-3.3,0.1l-0.7-0.5c0-1,2.7,0.1,2.7-3.3V240.6z"/>
<path d="M136.7,241.2l-0.3-1.6h-5.7c-2.2,0-2.2,0.5-2.9,2.4l-0.6,0.8l-0.3-0.4l0.4-3.4l0.6-1.4c2.7,0,5.4,0.1,9.9,0.1
	c6.3,0,9.5-0.1,10.2-0.1c0.8,0,1,0.2,1,1l0.2,2.8l-0.4,0.8c-1.3,0,0.6-2.6-3-2.6h-5c-1.6,0-1.4-0.1-1.4,1.7V259
	c0,2.9,2.8,1.8,2.8,2.9l-0.3,0.4c-0.8,0-1.8-0.1-2.8-0.1c-3.9,0-4.6,0.1-4.8,0.1l-0.4-0.5c0-0.8,2.8-0.5,2.8-2.6V241.2z"/>
<path d="M155.3,259.1l-0.5,1.1c0,0.4,0.6,0.5,1.4,0.5h6.5c4.5,0,4.4-2.3,5.7-2.3l0.2,0.6l-1.2,2.3c-0.4,0.8-0.9,0.9-1.7,0.9h-14.2
	l-0.6-0.5l0.2-0.7l12.3-20.5l0.6-1l-0.3-0.2h-7.3c-4.8,0-3.6,3.7-4.7,3.7l-0.5-0.4l0.5-3.6c0.1-1,0.2-1.1,1.3-1.1h13.5
	c0.8,0,1,0.2,1,0.6l-0.3,1L155.3,259.1z"/>
<path d="M178.1,249.1l1.6-0.6l0.4,1.1c0,1.7,0.1,1.7-1.3,2.1l-7.2,2.6l-1.6,0.6l-0.4-1c0-1.8-0.1-1.7,1.3-2.2L178.1,249.1z"/>
<path d="M201,228.5c8.9,0,11.3,3.6,12.7,3.6l1.1-0.5c0.5,0,0.5,0.8,0.7,3.8c0.1,2.5,0.5,4.1-0.3,4.1l-1.1-1.6
	c-2.9-5.1-6.3-8.1-12.4-8.1c-9.2,0-13.7,6.1-13.7,14.9c0,8.2,4.7,16.4,13.8,16.4c7.4,0,12.1-4.7,12.8-6.9l0.7-0.6l0.4,0.5l-1.1,4.7
	c-0.1,0.2-3.4,3.7-14,3.7c-9.7,0-16.6-6.7-16.6-16.4C184,236.4,191,228.5,201,228.5"/>
<path d="M223.8,250.5l0.5,0.6h6.9c0.8,0,0.7-0.2,0.6-0.7l-3.4-8.4h-0.6L223.8,250.5z M233.2,254c-0.3-0.8-0.6-1.3-1.5-1.3H224
	c-0.7,0-1.3,0-1.6,0.7l-2.2,4.9l-0.2,1.2c0,2.4,2.5,1.4,2.5,2.3l-0.9,0.5c-1,0-1.9-0.1-2.9-0.1c-0.9,0-1.9,0.1-2.8,0.1l-0.3-0.4
	c0-0.7,1.6-0.1,2.5-2.1l8.3-17.8c2.1-4.4,2.2-4.9,2.6-4.9l0.7,1.3l7.2,17.9c0.5,1.3,0.9,2.8,1.7,4c1,1.6,3.1,0.8,3.1,1.7l-0.5,0.3
	c-1.4,0-2.9-0.1-4.3-0.1c-0.9,0-1.9,0.1-2.8,0.1l-0.8-0.3c0-0.8,2.1-0.5,2.1-1.8c0-0.8-0.7-2.4-1.1-3.3L233.2,254z"/>
<path d="M247.3,248.9c0,0.7,2.2,0.5,3.8,0.5c1.5,0,4.8-0.6,4.8-4.9c0-4.2-3.2-5.7-6.7-5.7c-1.3,0-2-0.1-2,1.3V248.9z M259.9,258.5
	c2.5,3.8,4.2,2.5,4.2,3.4l-2.3,0.4c-2.5,0-3.9-1.8-5.2-3.8l-3.9-6.1c-1.3-1.9-0.7-1.8-4.6-1.8c-1.1,0-0.9,0.6-0.9,1v7.3
	c0,3,3.6,1.9,3.6,3.1l-0.6,0.3c-0.3,0-1.1-0.1-4-0.1c-1.3,0-2.6,0.1-4,0.1l-0.3-0.4c0-0.9,2.5-0.4,2.5-3v-17.7c0-3.3-3-1.9-3-3.1
	l0.7-0.4c0.6,0,0.5,0.1,2.2,0.1c2,0,4-0.1,5.8-0.1c0.6,0,8.2-0.7,8.2,6c0,2.7-1.9,5-4.4,6L259.9,258.5z"/>
<path d="M270.6,258c0,2.1-0.3,2.9,2.6,2.9c8,0,9.2-3.6,9.7-3.6l0.3,0.4c0,1.3-0.9,2.5-1.7,3.4c-1.1,1.3-1.9,1.2-3.4,1.2
	c-2.6,0-5.3-0.2-7.9-0.1c-1.4,0-2.9,0.1-4.2,0.1l-0.5-0.3c0.1-0.4,0.4-0.4,1.5-0.9c0.9-0.4,1-1.4,1-3v-17.7c0-1.8-2.9-1.6-2.9-2.3
	l0.7-0.5c0.7,0,1.8,0.1,3.5,0.1c2,0,2.8-0.1,3.3-0.1l0.7,0.5c0,0.8-2.5-0.1-2.5,3V258z"/>
<path d="M289.3,241.2l-0.3-1.6h-5.7c-2.2,0-2.2,0.5-2.9,2.4l-0.6,0.8l-0.3-0.4l0.4-3.4l0.6-1.4c2.7,0,5.4,0.1,9.9,0.1
	c6.3,0,9.5-0.1,10.2-0.1c0.8,0,1,0.2,1,1l0.2,2.8l-0.4,0.8c-1.3,0,0.6-2.6-3-2.6h-5c-1.6,0-1.4-0.1-1.4,1.7V259
	c0,2.9,2.8,1.8,2.8,2.9l-0.3,0.4c-0.8,0-1.8-0.1-2.8-0.1c-3.9,0-4.6,0.1-4.8,0.1l-0.4-0.5c0-0.8,2.8-0.5,2.8-2.6V241.2z"/>
<path d="M305,248.8c0,6.4,4.2,12.7,11.1,12.7c5.1,0,9.2-4.1,9.2-10.5c0-6.3-4.3-12.5-11.1-12.5C308.4,238.5,305,243.3,305,248.8
	 M302.5,249.8c0-7.2,5.6-12.5,12.8-12.5c7.1,0,12.6,5.1,12.6,12.3c0,7.8-5.4,12.9-13.2,12.9C307.1,262.5,302.5,257.2,302.5,249.8"/>
<path d="M332,244.5c0-7.2-4.2-5.2-4.2-6.5l0.5-0.4l1.6,0.1l1.6-0.1l0.9,0.8l16.6,18.5l0.4,0.4l0.1-0.4v-14.6c0-4.6-3.9-3.2-3.9-4.4
	l0.4-0.4c1,0,2.1,0.1,3.2,0.1c1.2,0,2.7-0.1,3.5-0.1l0.3,0.3c0,0.9-2.1,0.3-2.1,2.8v20.2c0,1,0,1.5-0.3,1.5c-0.2,0-0.6-0.2-1.3-1
	l-15-16.9l-0.7-0.7c-0.1,0-0.2,0.1-0.2,0.8V259c0,3.1,3.1,1.9,3.1,2.9l-0.4,0.5c-0.8,0-1.8-0.1-3.5-0.1c-1.2,0-3,0.1-3.3,0.1
	l-0.5-0.4c0-1.2,3.1,0.3,3.1-4.6V244.5z"/>
<path d="M363.8,242.6h1.7v-3.9h1.4c0.9,0,1.6,0.1,1.9,0.3c0.6,0.4,0.9,1.1,0.9,2.2v0.8l0,0.3l0,0.1l0,0.1h1.6l-0.1-0.1l-0.1-0.5
	l0-0.7v-0.7l-0.5-1.5c-0.4-0.5-0.9-0.8-1.7-1l1.4-0.5c0.6-0.4,1-1.1,1-1.9c0-1.2-0.5-2.1-1.5-2.5c-0.6-0.2-1.5-0.4-2.7-0.4h-3.4
	V242.6z M368.7,237.3c-0.4,0.1-0.9,0.2-1.6,0.2h-1.6V234h1.5c1,0,1.6,0.1,2.1,0.4c0.4,0.2,0.7,0.7,0.7,1.4
	C369.7,236.5,369.4,237.1,368.7,237.3 M373.7,231.4c-1.7-1.7-3.8-2.6-6.3-2.6c-2.5,0-4.5,0.9-6.3,2.6c-1.7,1.7-2.6,3.8-2.6,6.3
	c0,2.5,0.9,4.6,2.6,6.3c1.7,1.8,3.8,2.6,6.3,2.6c2.5,0,4.6-0.9,6.3-2.6c1.7-1.7,2.6-3.9,2.6-6.3S375.5,233.2,373.7,231.4
	 M372.8,232.3c1.5,1.5,2.2,3.3,2.2,5.4c0,2.1-0.7,4-2.2,5.5c-1.5,1.5-3.3,2.3-5.4,2.3c-2.1,0-3.9-0.8-5.4-2.3
	c-1.5-1.5-2.2-3.3-2.2-5.5c0-2.1,0.7-3.9,2.2-5.4c1.5-1.5,3.3-2.3,5.4-2.3C369.5,230,371.3,230.8,372.8,232.3"/>
<path d="M189.7,195.7c-1.4,0-2.5,1.1-2.5,2.5c0,1.4,1.1,2.5,2.5,2.5c1.4,0,2.5-1.1,2.5-2.5C192.2,196.8,191.1,195.7,189.7,195.7"/>
<path d="M146.7,201.9c-1.9,0-3.5-1.6-3.5-3.5c0-1.9,1.6-3.5,3.5-3.5c1.9,0,3.5,1.6,3.5,3.5C150.2,200.3,148.6,201.9,146.7,201.9
	 M153.2,192h-12.9c-2.1,0-3.8,1.7-3.8,3.8v5.2c0,2.1,1.7,3.8,3.8,3.8h12.9c2.1,0,3.8-1.7,3.8-3.8v-5.2
	C156.9,193.6,155.2,192,153.2,192"/>
<path d="M175.6,201.8c-1.9,0-3.5-1.6-3.5-3.5c0-1.9,1.6-3.5,3.5-3.5c1.9,0,3.5,1.6,3.5,3.5C179.1,200.2,177.5,201.8,175.6,201.8
	 M182.1,192h-12.9c-2.1,0-3.8,1.7-3.8,3.8v5.2c0,2.1,1.7,3.8,3.8,3.8h12.9c2.1,0,3.8-1.7,3.8-3.8v-5.2
	C185.8,193.7,184.1,192,182.1,192"/>
<path d="M203.8,201.8c-1.9,0-3.5-1.6-3.5-3.5c0-1.9,1.6-3.5,3.5-3.5c1.9,0,3.5,1.6,3.5,3.5C207.3,200.3,205.7,201.8,203.8,201.8
	 M210.1,192.2h-12.9c-2.1,0-3.8,1.7-3.8,3.8v5.2c0,2.1,1.7,3.8,3.8,3.8h12.9c2.1,0,3.8-1.7,3.8-3.8v-5.2
	C213.9,193.8,212.2,192.2,210.1,192.2"/>
<path d="M161.1,195.8c-1.4,0-2.5,1.1-2.5,2.5c0,1.4,1.1,2.5,2.5,2.5c1.4,0,2.5-1.1,2.5-2.5C163.6,197,162.5,195.8,161.1,195.8"/>
<path d="M133.3,195.8c-1.4,0-2.5,1.1-2.5,2.5c0,1.4,1.1,2.5,2.5,2.5c1.4,0,2.5-1.1,2.5-2.5C135.8,196.9,134.7,195.8,133.3,195.8"/>
<path d="M225.2,187.1h-99.8l-1-1l1-1h99.8l1,1L225.2,187.1z M221,205.8h-90.3c-6.5-0.2-0.9-0.6-0.9-3.8v-7.7c-0.1-3-5.8-3.8,0.9-3.8
	H221c6,0,0.1,0.7,0.2,3.8v7.7C221.3,205.1,226.6,205.6,221,205.8 M223.3,210.3h-95.6l-1-1l1-1h95.6l1,1L223.3,210.3z M246.9,147.4
	c-2.6,1.2-4.7,4.1-7.1,5.2c-1.7,1.5-3.8,2.2-5.8,3.1c-1,2.4,1.9,3.2,1.4,5.6c-0.5,1.2-2,2.8-3.4,2.3c-1.4-0.6-3.7-4.3-4.7-4.4
	c-1-0.1-5.3,3.4-5.6,4.6c-0.3,1.2,1.5,5.9,2.8,6.3c1.2,0.4,2.4-1.5,4.9-1c1.6,0.9,2.5,3.8,2.3,5.2c-0.3,1.4-2.1,6.5-8.1,6.3
	c-7-0.2-9.2-7.7-9-9.7c0.3-1.9,3.5-6.5,3.9-7.5c0.4-1.1-3.1-8.3-4.3-8.6c-1.1-0.3-7.1,4.4-7.4,6c-0.3,1.7,1.7,7.2,1.7,8.7
	c0,1.5-2,8.2-13.1,8s-11.7-6.2-11.7-8.4c0-2.2,3.3-5,5.6-5c2.6,0,6.4,3.1,7.6,3.1s5.7-5.6,5.7-6.6c0-1-4.3-7.1-5.8-7.1
	c-1,0-5.6,4.9-8.6,4.9s-5.3-0.8-5.3-3.4c0-3.6,6-5.3,6-6.8c0-0.8-3.6-2.9-6.6-5.5c-2.9-2.5-5.2-5.4-6-5.4c-0.8-0.1-3.9,3.2-7,5.8
	c-2.9,2.3-5.7,3.9-5.7,4.7c0,1.8,6.2,3.9,6.1,6.4c-0.1,2.5-1.6,4-4.9,4c-3.3,0-6.9-4.4-8.1-4.4c-1.2,0-5.8,5.4-5.8,6.9
	c0,1.5,4.3,6.8,6.1,6.8s3.8-4.1,7.8-4c4,0.1,5.4,2.7,5.4,6.7c0,4.6-7.5,6.9-12.3,6.9c-9.3,0-12.4-4.2-13.5-5.3
	c-2.2-4.1,1.1-10,0.7-11.4c-0.4-1.4-4.9-5.2-6.7-4.8c-1.8,0.4-4.7,5.7-4.4,7.1c0.3,1.4,3.7,5.8,3.7,10.1c0,4.3-4,6.4-9,6.6
	c-5.5,0.1-8.4-3.9-8.3-5.8c0.3-5.5,5.1-3,6.5-3.1c1.4-0.1,4.1-6.2,3.8-6.9c-0.3-0.7-5.2-4.3-6.4-3.9c-1.2,0.4-3.1,5.2-6,4
	c-4.6-2.7,2.8-5,0.6-8c-1.6-1-3.7-1.2-5.1-2.2c-2.7-1.3-5.6-3.2-7.8-5.6c-0.7,0.3-0.9-1.2-1.6-0.4l0.2,1.4
	c3.3,8.4,12.6,29.4,14.2,31.6c-0.6,3.9-1.7,7.3,0.2,11c1.6,3.1,2.6,6.5,3,10.2c1.7,4.4-2.7,9,1.4,12.5c1,0.6,102.4,0.4,104.1,0
	c1-0.5,1.7-1.3,2-2.4c-0.3-2-1.4-5.8,1.7-16.6c0.9-3.2,3.7-6.3,2.1-11.9C237.2,175.9,244.7,156.1,246.9,147.4"/>
<path d="M217.6,195.8c-1.4,0-2.5,1.1-2.5,2.5c0,1.4,1.1,2.5,2.5,2.5c1.4,0,2.5-1.1,2.5-2.5C220.1,197,219,195.8,217.6,195.8"/>
<path d="M160.5,40.9c-2.3-4.8-9.2-10-11.4-8c-2,1.9,4.2,2.7,6.2,10.6c1,0.3,2.2,0.7,2.6,1.2c0.4,0.4,3,2.2,6.9,7.6
	c0.8,1.2,3.7,1.9,4.2,1.5C169.5,53.3,165.7,44.1,160.5,40.9"/>
<path d="M138.8,31.9c-1.4-0.7-5.2,1.9-5.2,3.2c0,1.3,1.2,2.4,2,2.4C137.1,37.5,140.2,32.7,138.8,31.9"/>
<path d="M234.2,142.4c-3.6,1.2-10.8,3-19.8-6.4c-10.2-10.7-10.6-23.4-7.3-34.6c0.5-3-2.3-1.4-4,2.2c-1.6,3.4-2.6,11.3-3.3,11.5
	c-2.7,0.9-6-14.4,2.6-18.7c6.3-3.1,25.7-14,27.6-15.6c-0.2,4.2-10.6,13-12.7,14.4c-5.5,4.8-9.3,12.7-7.7,19.1c0.8,3.1,1.3,5,3.3,5.8
	c1.2,0.2,1.2-1.3,2-1.7c1.3,1.4,0.7,3.9,1.4,5.2c1.7,4.6,4.5,9.4,7.7,12.9c3.2,2.7,8.1,4.1,11.9,3.1
	C236.9,141.3,234.8,141.6,234.2,142.4 M146.1,59.3c0-0.8,1.8-2.4,3.2-2.4c1.4,0,0.9,1.6-0.2,2.3c-0.7,0.5-0.9,1.2-1.8,1.2
	C146.6,60.4,146.1,60.2,146.1,59.3 M143.7,62.9c1.1,0,1.6,0.4,2.1,1.6c0.5,1.3,0.1,1.8-0.5,1.8c-1.1,0-1.8-0.4-1.9-1.2
	C143.3,63.7,142.6,62.9,143.7,62.9 M198.5,133.9c-2.2-0.2-11.6,2.9-20.5-9.5c-2.7-3.8-4.6-9.5-5.5-19.4s7.8-22.3,5.9-24.2
	c-2.6,1.4-16.1,8.2-21.5,15.7c-2.7,3.7-5.5,17.6-6.2,21.8c-1.2-0.2-2.8-14,1.3-26.3c3.5-10.5,31.4-19.2,38.7-23.2
	c7.3-4,23.5-13,20.7-25.6c-0.6-6-5.2-10.8-9.7-13.5c-4.2-2.5-15.4-4.4-15.9-2.4c-0.6,2,5.2,4.7,5.1,8.4c5.3,2.5,12,6,11.9,13.3
	c-0.1,7.3-10.6,17.7-22.6,21.1c-13.7,3.9-27.7,9.4-33.3,16.5c-7.7,10-1,38.3-6.2,49.2c-0.9,2-4.1,5-5.7,6.4c-0.7,1,0,1.2,0.3,2.5
	c-1.4,1.4-7.5,3.9-12.7,2.9c-3-0.6-4.3-0.3-6.2-1.4c-2.6-1.5-5.2-4.5-5.7-5.7c0.3-0.4,6.2,2.7,13.4,1.8c4.7-0.6,11.6-4.2,13.1-10.4
	c3.2-8.5-3.5-27.8,9-45.5c6.8-9.7,28.3-18.8,42-22.9c7.2-2.9,4.9-11.4,8.5-16.9c0.4-0.8-0.2-2.1-1.2-2.2c-2.2,0.6-12.3,2.9-13.1,4
	c-0.8,1.1-3.9,5.3-3.7,6.9c2.2,2.3,9.8-1.7,7.5,4.2c-1.1,2.8-17.6,0.8-21.4,2.7c-3.8,1.9-8,5.9-9.1,9.1c-1.1,3.1-3.4,5.8-5.7,6.4
	c-3.1-0.3-6.3,0.8-8.3-2.3c-0.4-1.5-0.5-3.4-0.4-4.9c8.9-3.6,12.7-9.1,14.9-10.4c2.2-1.2,8.6-1.6,9.3-1.9c0.7-0.3,1.2-2.9,0.7-3.7
	c-0.5-0.7-5.8-4.3-7.4-5.9c-1.6-1.6-5.1-6-6.8-6.2c-1.7-0.2-4.2,2.7-8.9,3.4c-9.9,1.5-8.1,4.3-9.7,4.4c-1.6,0.1-2.2-3.1-2.8-6.4
	c-0.6-3.3,4.1-5.5,1.8-7.5c-0.8-0.8-3.4,3.2-5,1.4c-1.2-1.4,0.3-3.4,3.9-5.6c1.6-1,16.4-7.9,16.8-8.1c0.4-0.2,1-0.9,1.4,2
	c0.4,2.9,4.6,1,5.2,4.6c0.3,1.6,8.3-2.3,8.1-4c-0.1-1.2-3.5-0.2-3.7-0.8l1.5-2.4l-3.1-0.6l0.1-2.9c0.4-0.5,4.6,1,4.7-0.2
	c0.1-1.2-3-2.6-5-2.7c-2-0.1-4.4,1.4-5.3,1.4c-0.4-1.6,1.5-1.9,2.4-2.6c8.6-2.4,23.1-1.6,27.1,0c8.3,3.3,9.2,7.6,11.8,7.7
	c2.6,0.1,2.3-3.2,2.3-3.2c2.8,2.2,8.9,0.6,11.5-2.3c1.3-1.5,1.3-6.2,0.4-7.3c-2.5-1.2-2.2,2.1-3.2,3.2c-0.3,1-1.4,3.4-4.1,1.5
	c-2.6-1.9,0.2-7.1-0.7-8c-1.3-1.1-7.8,2.1-8.2,7.1c0,0-0.1,1.5,0.6,2.9c-2.7-0.5-3.5-6.9,3.1-9.7c5.5-2.4,4.8-3.3,6.9-3.3
	c2.5-0.1,6.1,5.1,7.4,8.6c1.7,4.1-3.3,7.5-1,11.4c3.8,4.6,7.9,5.6,13.8,11.9c5.9,6.3,9,22.4,7.4,28.7c-1.6,6.2-18.4,16.4-20.6,17.1
	l-1.3,0.4c5.3-8.3,12.7-13.8,17.5-22.5c1.9-4.7,2.6-11.2-0.6-15.3c-1.7-3.5-4.6-7.1-6.6-9.4c-2.1-2.3-8-7.3-12.5-7.4
	c-1.1,0-0.8,1.4-0.4,2c4.7,5.1,10.3,11.7,11.4,17.3c1,5.6,0.3,10.5-1.7,15c-0.9-0.9-0.3-2.3-1-3.6c0.3-0.8-0.6-1.2-0.8-1.8
	c-0.6,0.4-1.4,0-1.8,0.8c-0.1,1.7-11,17-16.2,23.9c-2.1,2.8-5.1,12.3-6.8,11.7c-0.5-7.4,2.9-13.2,3.9-15c1-1.7,4.8-7.3,5.3-9.2
	c-0.3-0.9-1.4-0.7-2-0.6c-2.7,2.1-10.5,8.7-14.1,13.9c-3.5,5.1-7.4,16.8-4.2,25.3l1.3,0.6c1.3-0.8,0.8-2.4,1.2-3.6
	c3,6.8,3.8,13.5,7.6,18c3.9,4.5,11.7,9,12.7,9.4C200.4,133.2,199.4,133.9,198.5,133.9 M166.7,118.8c-0.8,5.5-4,8.7-5.7,13.1
	c1,1.3,2,0.3,3.2,0c1,2.2-7.3,5.5-8.4,4.6c-1.2-1.4,2.5-2.5,3.4-9.2c0.7-5.3-0.5-16,0.7-21c0.7-2.9,2.8-6.2,5.3-8
	c0,0,0.6,3.1,0.6,7.2C165.6,108.2,168.1,109.4,166.7,118.8 M139.7,65.8c-1.6,0.7-3,0.2-4.8,0.4V66c-1.7-0.1-3.4-1.7-5.1-1.4v-0.2
	c-1.5,0.3-3.1-0.5-4.4-0.8c0.4-2.2,3.3-1.2,4.6-2c3.6,0.1,6.2,3,9.5,2.8L139.7,65.8z M136.9,53.5c0-1.5,0.1-2.6,1-2.6
	c0.9,0,1.2,0.6,1.3,1.7c0.1,1.5,0.3,2.6-0.6,2.6C137.7,55.3,136.9,54.4,136.9,53.5 M183.1,8.7c1,0,1.2,0.2,1.2,0.6
	c0.1,0.8-1,1.7-2,1.7c-1,0-1.1-0.2-1.1-1C181.2,9.3,182.1,8.7,183.1,8.7 M219.4,22.8c2-0.6,4.5,1.1,6.1,3.2
	c1.7,2.2,3.9,10.1,1.3,8.9C224.2,33.7,216.6,23.7,219.4,22.8 M245.1,128.7c-0.9-0.3-1.3,0.5-2,0.7c-0.8,2.7-4.8,4.5-8.2,3.5
	c-2.1-0.6-8.2-3.7-8.2-13.5c-0.1-10.4,11.4-15.7,9.4-29.4c3.4-7.1,6.9-12.2,6.9-19c0-4.4-2.2-10.8-2.3-13.6c0.7,0,2,0,2.6-0.8
	c1.1-5.6-3.7-9.1-6.6-12.9c-0.8-1.8,1.3-1.3,1.8-2.6c-0.2-1.2-1.2-2.6-2.2-3.4c-4.5-3.6-2.6-17.3-7.2-22.5
	c-4.7-5.3-11.6-3.9-13.3-4.8c-3-1.5-7.9-9.9-11.1-10.4c-1.6-0.3-2.2-0.1-3.4,0.7c-6.8,4.1-9.6,4.8-20.3,3.3
	c-3.1-0.4-6.8,3.9-9.5,6.2c-0.8,1.4-3.9,0.7-7.4,1.3c-3.5,0.5-7.2,1.2-12.5,2.5c-3.1,1.1-2.8,4-4.4,6.2c-1.3,2.4-7.9,4.5-10.7,6.1
	c-2.8,1.6-7.3,4.3-11.2,7.5c-1.4,1.4-3.2,4.5-0.9,6.6c5.5,5.2,2.7,10.6,5.7,12.9c4.1,3.1,8.5,5,7.7,7c-0.8,2-5.8-1.9-10.9-1.1
	c-3.6,0.6-5.8,2.5-5.6,6.9c0.1,1.6,0,3.1,2,3.1c2.8,0.1,2.1-4,9.4-0.8c5.6,2.4,5.2,6,6.5,9.3c0.7,2.2,3.3,3.2,4.3,5
	c-2.9,6.2-8.4,11.9-8.9,19.4c-0.5,7.5,1.3,28.2-10,31.7c-15.4,4.7-14.2-8.7-18.5-6.3c-1.9,1.1-8.1,13.8,7.1,23.1
	c9.5,5.8,24.9,0.8,32-3.2c10.2,0,21.7-3.5,31.4-12.8c9,9.7,20.9,12.8,33.1,12.8c5.1,2.4,16.9,9.8,30.8,2.9
	C249.7,145.7,248.2,134.4,245.1,128.7"/>
</svg>
